<?xml version="1.0" encoding="utf-8"?>
<!-- Generator: Adobe Illustrator 16.0.3, SVG Export Plug-In . SVG Version: 6.00 Build 0)  -->
<!DOCTYPE svg PUBLIC "-//W3C//DTD SVG 1.1//EN" "http://www.w3.org/Graphics/SVG/1.1/DTD/svg11.dtd">
<svg version="1.1" id="Layer_1" xmlns="http://www.w3.org/2000/svg" xmlns:xlink="http://www.w3.org/1999/xlink" x="0px" y="0px"
	 width="40px" height="40px" viewBox="0 0 40 40" enable-background="new 0 0 40 40" xml:space="preserve">
<g>
	<path fill="#333333" d="M19.409,1.597c0,0.798-0.649,1.446-1.446,1.446c-0.798,0-1.446-0.648-1.446-1.446
		c0-0.799,0.648-1.447,1.446-1.447C18.76,0.15,19.409,0.798,19.409,1.597"/>
	<path fill="#333333" d="M23.523,1.597c0,0.798-0.646,1.446-1.444,1.446c-0.8,0-1.447-0.648-1.447-1.446
		c0-0.799,0.647-1.447,1.447-1.447C22.877,0.15,23.523,0.798,23.523,1.597"/>
	<path fill="#333333" d="M30.439,37.811l-4.424-5.953c-0.42-0.564-1.222-0.682-1.787-0.262c-0.566,0.42-0.687,1.221-0.264,1.785
		l0.316,0.428h-8.219l0.315-0.428c0.418-0.564,0.302-1.365-0.264-1.785c-0.563-0.419-1.365-0.304-1.787,0.262L9.9,37.811
		c-0.418,0.565-0.3,1.366,0.265,1.787c0.23,0.168,0.497,0.252,0.763,0.252c0.389,0,0.775-0.179,1.026-0.517l2.208-2.972h12.02
		l2.211,2.972c0.248,0.338,0.633,0.517,1.022,0.517c0.269,0,0.532-0.084,0.765-0.252C30.744,39.177,30.861,38.376,30.439,37.811"/>
	<path fill="#333333" d="M27.381,3.821h-14.56c-1.94,0-3.513,1.574-3.513,3.514v19.453c0,1.94,1.573,3.513,3.513,3.513h14.557
		c1.942,0,3.515-1.57,3.515-3.513V7.334C30.895,5.394,29.32,3.821,27.381,3.821z M11.758,8.623c0-1.164,0.944-2.108,2.109-2.108
		h12.471c1.165,0,2.109,0.944,2.109,2.108v9.487c0,1.165-0.945,2.108-2.109,2.108H13.867c-1.166,0-2.109-0.945-2.109-2.108V8.623z
		 M15.477,27.588h-3.396c-0.438,0-0.791-0.355-0.791-0.79c0-0.437,0.353-0.791,0.791-0.791h3.396c0.438,0,0.792,0.354,0.792,0.791
		C16.268,27.232,15.914,27.588,15.477,27.588z M27.7,27.588h-3.397c-0.439,0-0.791-0.355-0.791-0.79
		c0-0.437,0.354-0.791,0.791-0.791H27.7c0.437,0,0.788,0.354,0.788,0.791C28.488,27.232,28.137,27.588,27.7,27.588z"/>
</g>
</svg>
